<?xml version="1.0" encoding="UTF-8" standalone="no"?>
<svg
   xmlns:dc="http://purl.org/dc/elements/1.1/"
   xmlns:cc="http://creativecommons.org/ns#"
   xmlns:rdf="http://www.w3.org/1999/02/22-rdf-syntax-ns#"
   xmlns:svg="http://www.w3.org/2000/svg"
   xmlns="http://www.w3.org/2000/svg"
   xmlns:sodipodi="http://sodipodi.sourceforge.net/DTD/sodipodi-0.dtd"
   xmlns:inkscape="http://www.inkscape.org/namespaces/inkscape"
   width="900"
   height="600"
   version="1.1"
   id="svg8"
   sodipodi:docname="flag.svg"
   inkscape:version="1.0.1 (3bc2e813f5, 2020-09-07, custom)"
   inkscape:export-filename="/home/hiohlan/Downloads/programme/AnySoftKeyboard-master/addons/languages/ikbatha0/apk/flag/backup - flag.png"
   inkscape:export-xdpi="96"
   inkscape:export-ydpi="96">
  <metadata
     id="metadata14">
    <rdf:RDF>
      <cc:Work
         rdf:about="">
        <dc:format>image/svg+xml</dc:format>
        <dc:type
           rdf:resource="http://purl.org/dc/dcmitype/StillImage" />
      </cc:Work>
    </rdf:RDF>
  </metadata>
  <defs
     id="defs12" />
  <sodipodi:namedview
     pagecolor="#ffffff"
     bordercolor="#666666"
     borderopacity="1"
     objecttolerance="10"
     gridtolerance="10"
     guidetolerance="10"
     inkscape:pageopacity="0"
     inkscape:pageshadow="2"
     inkscape:window-width="1920"
     inkscape:window-height="1053"
     id="namedview10"
     showgrid="false"
     inkscape:zoom="0.70003571"
     inkscape:cx="353.38383"
     inkscape:cy="236.77596"
     inkscape:window-x="0"
     inkscape:window-y="27"
     inkscape:window-maximized="1"
     inkscape:current-layer="svg8" />
  <rect
     fill="#a51931"
     width="500"
     height="600"
     id="rect843"
     x="400"
     y="0"
     style="stroke-width:0.999995;fill:#f4f5f8;fill-opacity:1" />
  <rect
     fill="#a51931"
     width="400"
     height="600"
     id="rect2"
     x="0"
     y="0"
     style="stroke-width:0.999995" />
  <rect
     fill="#f4f5f8"
     y="100"
     width="400"
     height="400"
     id="rect4"
     x="0"
     style="stroke-width:0.999998" />
  <rect
     fill="#2d2a4a"
     y="200"
     width="400"
     height="200"
     id="rect6"
     x="0"
     style="stroke-width:0.999998" />
  <path
     d="M 771.48642,525.57263 V 212.23407 q 0,-119.367073 -113.5645,-119.367073 -53.05203,0 -81.23592,23.210263 -27.35496,22.38133 -27.35496,66.31504 l 80.40699,40.61796 q 12.43407,5.80257 12.43407,18.23664 0,9.94725 -5.80257,15.74982 -77.09123,5.80256 -77.09123,87.03849 V 520.599 H 491.30538 V 341.54839 q 0,-43.93371 19.89452,-69.63079 19.89451,-26.52601 62.17034,-37.30221 v -2.48681 L 484.67388,206.4315 q -4.97363,-19.89451 -4.97363,-36.47327 0,-52.22309 48.0784,-82.064861 48.07841,-29.841767 130.97221,-29.841767 180.70848,0 180.70848,145.064148 v 274.37847 l -40.61796,48.07841 z"
     style="font-style:normal;font-variant:normal;font-weight:normal;font-stretch:normal;font-size:828.938px;line-height:1.25;font-family:'Noto Serif Thai';-inkscape-font-specification:'Noto Serif Thai';fill:#a51931;fill-opacity:1;stroke:none;stroke-width:1"
     id="path845" />
</svg>
