<svg width="900" height="600" version="1.1" xmlns="http://www.w3.org/2000/svg">
 <rect width="400" height="600" fill="#a51931"/>
 <path d="m400 0v100h-400v400h400v100h500v-600h-500z" fill="#f4f5f8"/>
 <rect y="200" width="400" height="200" fill="#2d2a4a"/>
 <path d="m771.49 525.57v-313.34q0-119.37-113.56-119.37-53.052 0-81.236 23.21-27.355 22.381-27.355 66.315l80.407 40.618q12.434 5.8026 12.434 18.237 0 9.9472-5.8026 15.75-77.091 5.8026-77.091 87.038v176.56h-67.973v-179.05q0-43.934 19.895-69.631 19.895-26.526 62.17-37.302v-2.4868l-88.696-25.697q-4.9736-19.895-4.9736-36.473 0-52.223 48.078-82.065t130.97-29.842q180.71 0 180.71 145.06v274.38l-40.618 48.078z" fill="#a51931"/>
</svg>
